<svg width="129" height="129" fill="none" xmlns="http://www.w3.org/2000/svg"><path d="M0 0h129v129H0V0z" fill="#1073B6"/><path fill-rule="evenodd" clip-rule="evenodd" d="M118.25 9.406H10.75c-.742 0-1.344.602-1.344 1.344v107.5c0 .742.602 1.344 1.344 1.344h107.5c.742 0 1.344-.602 1.344-1.344V10.75c0-.742-.602-1.344-1.344-1.344zM10.75 6.72a4.031 4.031 0 00-4.031 4.03V118.25a4.031 4.031 0 004.031 4.031h107.5a4.03 4.03 0 004.031-4.031V10.75a4.03 4.03 0 00-4.031-4.031H10.75z" fill="#fff"/><path opacity=".11" fill-rule="evenodd" clip-rule="evenodd" d="M37.288 115.563V13.438h2.688v102.125h-2.688zM63.492 115.563V13.438h2.687v102.125h-2.688zM91.71 115.563V13.438h2.688v102.125H91.71z" fill="#fff"/><path opacity=".11" fill-rule="evenodd" clip-rule="evenodd" d="M13.437 37.289h102.125v2.687H13.437V37.29zM13.437 63.492h102.125v2.688H13.437v-2.688zM13.437 91.71h102.125v2.688H13.437v-2.687z" fill="#fff"/><path d="M74.332 72.735a1357.86 1357.86 0 015.423 8.742c.083.132 3.131 5.089 3.897 6.33 2.987 4.838 4.143 6.641 4.711 7.214 3.073 3.1 7.437 1.76 9.964-1.866 1.75-2.513 2.454-4.562 2.454-6.923 0-.87-.738-2.345-3.949-8.425-2.144-4.06-5.09-9.527-8.33-15.469C81.895 50.23 75.79 39.3 74.616 37.53c-2.802-4.225-4.165-5.14-8.597-5.279h-3.07c-4.432.139-5.794 1.053-8.597 5.28-2.686 4.05-25.093 45.09-26.026 47.9a2.14 2.14 0 00-.109.675v.872c0 .059.003.118.008.177.165 1.98.9 3.821 2.418 6 2.526 3.627 6.89 4.965 9.963 1.866.568-.573 1.724-2.376 4.71-7.215.767-1.24 3.814-6.195 3.897-6.33a1351.213 1351.213 0 015.424-8.741c4.256-6.785 7.526-11.758 9.847-14.89 2.337 3.156 5.6 8.121 9.847 14.89zm-41.67 13.772C34.52 82.249 55.656 43.56 58.08 39.905c2.065-3.113 2.2-3.21 4.977-3.298h2.858c2.778.087 2.912.185 4.976 3.298 1.067 1.609 7.198 12.584 13.692 24.488 3.232 5.926 6.17 11.376 8.303 15.417a286.192 286.192 0 012.667 5.146c.312.624.55 1.114.706 1.458l.019.034c.021.027.06.039.06-.216 0 1.443-.414 2.648-1.68 4.467-1.141 1.637-2.381 2.017-3.107 1.286-.186-.188-1.64-2.458-4.096-6.434-.763-1.237-3.81-6.19-3.893-6.326a1360.968 1360.968 0 00-5.443-8.773c-4.33-6.902-7.655-11.956-10.065-15.204-1.74-2.41-5.396-2.41-7.153.023-2.393 3.225-5.718 8.28-10.048 15.181l-1.001 1.6a1354.333 1354.333 0 00-4.442 7.173c-.084.138-3.13 5.089-3.893 6.326-2.455 3.976-3.91 6.246-4.096 6.433-.726.733-1.965.352-3.106-1.286-1.082-1.552-1.54-2.672-1.651-3.816v-.375z" fill="#fff"/></svg>