<svg width="93" height="26" viewBox="0 0 93 26" fill="none" xmlns="http://www.w3.org/2000/svg"><path d="M11.952 8.085c.189-.276.396-.311.564-.311.168 0 .447.035.636.311 1.491 2.031 3.951 6.076 5.766 9.06 1.184 1.946 2.093 3.44 2.28 3.63.7.714 1.66.27 2.217-.54.55-.798.702-1.358.702-1.955 0-.407-7.958-15.086-8.759-16.308C14.588.797 14.336.5 13.018.5h-.988c-1.315 0-1.505.297-2.276 1.472C8.953 3.194.994 17.873.994 18.28c0 .597.153 1.157.703 1.955.558.81 1.518 1.254 2.218.54.186-.19 1.095-1.684 2.279-3.63 1.815-2.984 4.267-7.029 5.758-9.06zM32.959 20.146h12.497v-3.224h-8.588v-4.415h7.911V9.283h-7.91V4.876h8.551V1.652H32.958v18.494zM51.671 6.276h-3.973l3.973 6.935-4.117 6.935h3.973l2.69-4.795 2.737 4.795h3.928l-4.127-6.935 4.019-6.935h-3.946l-2.61 4.85-2.547-4.85zM63.058 25.348h3.847v-7.423h.118c.532 1.156 1.697 2.447 3.937 2.447 3.16 0 5.626-2.501 5.626-7.143 0-4.768-2.574-7.134-5.617-7.134-2.32 0-3.432 1.382-3.946 2.51h-.172v-2.33h-3.793v19.073zm3.766-12.137c0-2.474 1.047-4.055 2.917-4.055 1.905 0 2.916 1.653 2.916 4.055 0 2.42-1.029 4.1-2.916 4.1-1.851 0-2.917-1.626-2.917-4.1zM85.417 20.417c4.208 0 6.827-2.88 6.827-7.152 0-4.298-2.619-7.17-6.827-7.17s-6.827 2.872-6.827 7.17c0 4.271 2.62 7.152 6.827 7.152zm.018-2.98c-1.941 0-2.934-1.779-2.934-4.199s.993-4.208 2.934-4.208c1.906 0 2.899 1.788 2.899 4.208s-.993 4.2-2.899 4.2z" fill="#000"/></svg>