<svg width="92" height="26" fill="none" xmlns="http://www.w3.org/2000/svg"><path fill-rule="evenodd" clip-rule="evenodd" d="M0 18.036c.042.507.221 1.016.692 1.699.558.81 1.518 1.254 2.218.54.473-.481 5.582-9.335 8.045-12.69a.737.737 0 011.202 0c2.463 3.355 7.572 12.209 8.045 12.69.7.714 1.66.27 2.218-.54.55-.798.702-1.358.702-1.955 0-.407-7.958-15.086-8.76-16.308C13.593.297 13.357.042 12.053 0h-.994c-1.304.041-1.54.297-2.31 1.472C7.964 2.67.317 16.77 0 17.737v.299z" fill="#000020"/><path d="M31.837 19.97V1.215H43.42v3.35h-8.053V8.77h7.32v3.216h-7.32v4.635h8.053v3.35H31.837zm14.26 0l4.811-7.341-4.523-6.86h3.53l3.111 4.77h.052l3.112-4.77h3.53l-4.524 6.86 4.811 7.342h-3.634l-3.294-5.091h-.053l-3.294 5.09h-3.635zM62.622 26V5.77h3.242v1.366h.053l.13-.201c.053-.08.188-.22.406-.416.218-.196.457-.375.719-.536.261-.16.614-.303 1.059-.428a5.24 5.24 0 011.425-.188c1.638 0 3.072.674 4.3 2.023 1.23 1.349 1.844 3.175 1.844 5.48 0 2.322-.593 4.153-1.778 5.493-1.185 1.34-2.623 2.01-4.314 2.01-.506 0-.972-.063-1.399-.188-.427-.125-.771-.272-1.033-.442a5.714 5.714 0 01-.68-.51 2.688 2.688 0 01-.418-.441l-.104-.188h-.053V26h-3.399zm3.4-14.604v2.92c0 .823.27 1.515.81 2.078.54.562 1.264.844 2.17.844.994 0 1.809-.375 2.445-1.126.636-.75.954-1.83.954-3.242 0-1.411-.314-2.492-.941-3.242-.628-.75-1.447-1.126-2.458-1.126-.906 0-1.63.282-2.17.844-.54.563-.81 1.246-.81 2.05zm18.616 8.977c-1.883 0-3.434-.661-4.654-1.983-1.22-1.322-1.83-3.162-1.83-5.52 0-2.322.627-4.153 1.882-5.493 1.255-1.34 2.79-2.01 4.602-2.01 1.813 0 3.347.67 4.602 2.01 1.255 1.34 1.882 3.17 1.882 5.493 0 2.358-.61 4.198-1.83 5.52-1.22 1.322-2.771 1.983-4.654 1.983zm0-3.135c.976 0 1.743-.38 2.3-1.14.559-.758.838-1.835.838-3.228 0-1.393-.284-2.47-.85-3.229-.567-.76-1.33-1.139-2.288-1.139-.959 0-1.721.375-2.288 1.126-.567.75-.85 1.83-.85 3.242 0 1.411.28 2.492.837 3.242.558.75 1.325 1.126 2.3 1.126z" fill="#000020"/></svg>